Montserrat-LightItalic.ufo
<glyph name="exclam" format="2">
  <advance width="242"/>
  <unicode hex="0021"/>
  <outline>
    <contour>
      <point x="100" y="188" type="line"/>
      <point x="114" y="188" type="line"/>
      <point x="220" y="700" type="line"/>
      <point x="198" y="700" type="line"/>
    </contour>
    <contour>
      <point x="74" y="-3" type="curve" smooth="yes"/>
      <point x="88" y="-3"/>
      <point x="100" y="9"/>
      <point x="100" y="23" type="curve" smooth="yes"/>
      <point x="100" y="37"/>
      <point x="88" y="49"/>
      <point x="74" y="49" type="curve" smooth="yes"/>
      <point x="60" y="49"/>
      <point x="48" y="37"/>
      <point x="48" y="23" type="curve" smooth="yes"/>
      <point x="48" y="9"/>
      <point x="60" y="-3"/>
    </contour>
  </outline>
</glyph>
<glyph name="percent" format="2">
  <advance width="800"/>
  <unicode hex="0025"/>
  <outline>
    <contour>
      <point x="98" y="0" type="line"/>
      <point x="122" y="0" type="line"/>
      <point x="738" y="700" type="line"/>
      <point x="714" y="700" type="line"/>
    </contour>
    <contour>
      <point x="223" y="328" type="curve" smooth="yes"/>
      <point x="334" y="328"/>
      <point x="403" y="442"/>
      <point x="403" y="558" type="curve" smooth="yes"/>
      <point x="403" y="647"/>
      <point x="355" y="702"/>
      <point x="277" y="702" type="curve" smooth="yes"/>
      <point x="166" y="702"/>
      <point x="97" y="588"/>
      <point x="97" y="472" type="curve" smooth="yes"/>
      <point x="97" y="383"/>
      <point x="145" y="328"/>
    </contour>
    <contour>
      <point x="224" y="346" type="curve" smooth="yes"/>
      <point x="156" y="346"/>
      <point x="117" y="394"/>
      <point x="117" y="474" type="curve" smooth="yes"/>
      <point x="117" y="574"/>
      <point x="175" y="684"/>
      <point x="276" y="684" type="curve" smooth="yes"/>
      <point x="344" y="684"/>
      <point x="383" y="636"/>
      <point x="383" y="556" type="curve" smooth="yes"/>
      <point x="383" y="456"/>
      <point x="325" y="346"/>
    </contour>
    <contour>
      <point x="559" y="-3" type="curve" smooth="yes"/>
      <point x="670" y="-3"/>
      <point x="739" y="111"/>
      <point x="739" y="227" type="curve" smooth="yes"/>
      <point x="739" y="316"/>
      <point x="691" y="371"/>
      <point x="613" y="371" type="curve" smooth="yes"/>
      <point x="502" y="371"/>
      <point x="433" y="257"/>
      <point x="433" y="141" type="curve" smooth="yes"/>
      <point x="433" y="52"/>
      <point x="481" y="-3"/>
    </contour>
    <contour>
      <point x="560" y="15" type="curve" smooth="yes"/>
      <point x="492" y="15"/>
      <point x="453" y="63"/>
      <point x="453" y="143" type="curve" smooth="yes"/>
      <point x="453" y="243"/>
      <point x="511" y="353"/>
      <point x="612" y="353" type="curve" smooth="yes"/>
      <point x="680" y="353"/>
      <point x="719" y="305"/>
      <point x="719" y="225" type="curve" smooth="yes"/>
      <point x="719" y="125"/>
      <point x="661" y="15"/>
    </contour>
  </outline>
</glyph>
<glyph name="question" format="2">
  <advance width="554"/>
  <unicode hex="003F"/>
  <outline>
    <contour>
      <point x="236" y="188" type="curve"/>
      <point x="256" y="188" type="line"/>
      <point x="290" y="370"/>
      <point x="521" y="358"/>
      <point x="521" y="558" type="curve" smooth="yes"/>
      <point x="521" y="651"/>
      <point x="452" y="703"/>
      <point x="333" y="703" type="curve" smooth="yes"/>
      <point x="227" y="703"/>
      <point x="148" y="672"/>
      <point x="89" y="614" type="curve"/>
      <point x="102" y="599" type="line"/>
      <point x="159" y="656"/>
      <point x="230" y="684"/>
      <point x="333" y="684" type="curve" smooth="yes"/>
      <point x="441" y="684"/>
      <point x="502" y="638"/>
      <point x="502" y="558" type="curve" smooth="yes"/>
      <point x="502" y="371"/>
      <point x="272" y="386"/>
    </contour>
    <contour>
      <point x="213" y="-3" type="curve" smooth="yes"/>
      <point x="227" y="-3"/>
      <point x="239" y="9"/>
      <point x="239" y="23" type="curve" smooth="yes"/>
      <point x="239" y="37"/>
      <point x="227" y="49"/>
      <point x="213" y="49" type="curve" smooth="yes"/>
      <point x="199" y="49"/>
      <point x="187" y="37"/>
      <point x="187" y="23" type="curve" smooth="yes"/>
      <point x="187" y="9"/>
      <point x="199" y="-3"/>
    </contour>
  </outline>
</glyph>
<glyph name="Q" format="2">
  <advance width="836"/>
  <unicode hex="0051"/>
  <anchor x="506" y="700" name="top"/>
  <outline>
    <contour>
      <point x="386" y="-3" type="curve" smooth="yes"/>
      <point x="644" y="-3"/>
      <point x="802" y="196"/>
      <point x="802" y="420" type="curve" smooth="yes"/>
      <point x="802" y="589"/>
      <point x="691" y="703"/>
      <point x="487" y="703" type="curve" smooth="yes"/>
      <point x="229" y="703"/>
      <point x="71" y="504"/>
      <point x="71" y="280" type="curve" smooth="yes"/>
      <point x="71" y="111"/>
      <point x="182" y="-3"/>
    </contour>
    <contour>
      <point x="584" y="-124" type="curve" smooth="yes"/>
      <point x="644" y="-124"/>
      <point x="703" y="-99"/>
      <point x="745" y="-48" type="curve"/>
      <point x="731" y="-35" type="line"/>
      <point x="694" y="-82"/>
      <point x="643" y="-105"/>
      <point x="585" y="-105" type="curve" smooth="yes"/>
      <point x="511" y="-105"/>
      <point x="452" y="-65"/>
      <point x="401" y="8" type="curve"/>
      <point x="376" y="3" type="line"/>
      <point x="436" y="-78"/>
      <point x="501" y="-124"/>
    </contour>
    <contour>
      <point x="388" y="16" type="curve" smooth="yes"/>
      <point x="192" y="16"/>
      <point x="91" y="123"/>
      <point x="91" y="280" type="curve" smooth="yes"/>
      <point x="91" y="499"/>
      <point x="246" y="684"/>
      <point x="485" y="684" type="curve" smooth="yes"/>
      <point x="681" y="684"/>
      <point x="782" y="577"/>
      <point x="782" y="420" type="curve" smooth="yes"/>
      <point x="782" y="201"/>
      <point x="627" y="16"/>
    </contour>
  </outline>
</glyph>
<glyph name="S" format="2">
  <advance width="601"/>
  <unicode hex="0053"/>
  <anchor x="266" y="0" name="bottom"/>
  <anchor x="406" y="700" name="top"/>
  <outline>
    <contour>
      <point x="263" y="-3" type="curve" smooth="yes"/>
      <point x="410" y="-3"/>
      <point x="527" y="63"/>
      <point x="527" y="195" type="curve" smooth="yes"/>
      <point x="527" y="403"/>
      <point x="150" y="312"/>
      <point x="150" y="505" type="curve" smooth="yes"/>
      <point x="150" y="618"/>
      <point x="250" y="684"/>
      <point x="388" y="684" type="curve" smooth="yes"/>
      <point x="461" y="684"/>
      <point x="528" y="663"/>
      <point x="577" y="624" type="curve"/>
      <point x="590" y="641" type="line"/>
      <point x="541" y="681"/>
      <point x="464" y="703"/>
      <point x="388" y="703" type="curve" smooth="yes"/>
      <point x="242" y="703"/>
      <point x="131" y="633"/>
      <point x="131" y="503" type="curve" smooth="yes"/>
      <point x="131" y="292"/>
      <point x="507" y="384"/>
      <point x="507" y="194" type="curve" smooth="yes"/>
      <point x="507" y="79"/>
      <point x="406" y="16"/>
      <point x="264" y="16" type="curve" smooth="yes"/>
      <point x="173" y="16"/>
      <point x="79" y="55"/>
      <point x="42" y="108" type="curve"/>
      <point x="26" y="95" type="line"/>
      <point x="64" y="39"/>
      <point x="164" y="-3"/>
    </contour>
  </outline>
</glyph>
<glyph name="underscore" format="2">
  <advance width="500"/>
  <unicode hex="005F"/>
  <outline>
    <contour>
      <point x="-55" y="-19" type="line"/>
      <point x="445" y="-19" type="line"/>
      <point x="449" y="0" type="line"/>
      <point x="-51" y="0" type="line"/>
    </contour>
  </outline>
</glyph>
<glyph name="m" format="2">
  <advance width="1068"/>
  <unicode hex="006D"/>
  <anchor x="485" y="0" name="bottom"/>
  <outline>
    <contour>
      <point x="798" y="520" type="curve" smooth="yes"/>
      <point x="691" y="520"/>
      <point x="603" y="470"/>
      <point x="555" y="366" type="curve"/>
      <point x="562" y="364" type="line"/>
      <point x="561" y="458"/>
      <point x="503" y="520"/>
      <point x="387" y="520" type="curve" smooth="yes"/>
      <point x="281" y="520"/>
      <point x="196" y="472"/>
      <point x="146" y="362" type="curve"/>
      <point x="156" y="367" type="line"/>
      <point x="186" y="517" type="line"/>
      <point x="166" y="517" type="line"/>
      <point x="63" y="0" type="line"/>
      <point x="83" y="0" type="line"/>
      <point x="140" y="287" type="line" smooth="yes"/>
      <point x="168" y="426"/>
      <point x="259" y="501"/>
      <point x="385" y="501" type="curve" smooth="yes"/>
      <point x="510" y="501"/>
      <point x="560" y="426"/>
      <point x="536" y="305" type="curve" smooth="yes"/>
      <point x="475" y="0" type="line"/>
      <point x="495" y="0" type="line"/>
      <point x="556" y="304" type="line" smooth="yes"/>
      <point x="582" y="433"/>
      <point x="676" y="501"/>
      <point x="797" y="501" type="curve" smooth="yes"/>
      <point x="922" y="501"/>
      <point x="972" y="426"/>
      <point x="948" y="305" type="curve" smooth="yes"/>
      <point x="887" y="0" type="line"/>
      <point x="907" y="0" type="line"/>
      <point x="968" y="305" type="line" smooth="yes"/>
      <point x="993" y="431"/>
      <point x="939" y="520"/>
    </contour>
  </outline>
</glyph>
<glyph name="q" format="2">
  <advance width="671"/>
  <unicode hex="0071"/>
  <anchor x="253" y="0" name="bottom"/>
  <anchor x="356" y="517" name="top"/>
  <outline>
    <contour>
      <point x="269" y="-3" type="curve" smooth="yes"/>
      <point x="440" y="-3"/>
      <point x="558" y="133"/>
      <point x="557" y="312" type="curve" smooth="yes"/>
      <point x="556" y="442"/>
      <point x="479" y="520"/>
      <point x="341" y="520" type="curve" smooth="yes"/>
      <point x="171" y="520"/>
      <point x="49" y="386"/>
      <point x="49" y="207" type="curve" smooth="yes"/>
      <point x="49" y="78"/>
      <point x="134" y="-3"/>
    </contour>
    <contour>
      <point x="272" y="16" type="curve" smooth="yes"/>
      <point x="144" y="16"/>
      <point x="69" y="86"/>
      <point x="69" y="208" type="curve" smooth="yes"/>
      <point x="69" y="376"/>
      <point x="183" y="501"/>
      <point x="338" y="501" type="curve" smooth="yes"/>
      <point x="466" y="501"/>
      <point x="541" y="431"/>
      <point x="541" y="309" type="curve" smooth="yes"/>
      <point x="541" y="140"/>
      <point x="427" y="16"/>
    </contour>
    <contour>
      <point x="446" y="-194" type="line"/>
      <point x="466" y="-194" type="line"/>
      <point x="608" y="517" type="line"/>
      <point x="588" y="517" type="line"/>
      <point x="550" y="327" type="line"/>
      <point x="547" y="250" type="line"/>
      <point x="521" y="180" type="line"/>
    </contour>
  </outline>
</glyph>
<glyph name="r" format="2">
  <advance width="383"/>
  <unicode hex="0072"/>
  <anchor x="73" y="0" name="bottom"/>
  <anchor x="278" y="517" name="top"/>
  <outline>
    <contour>
      <point x="63" y="0" type="line"/>
      <point x="83" y="0" type="line"/>
      <point x="137" y="270" type="line" smooth="yes"/>
      <point x="167" y="420"/>
      <point x="250" y="500"/>
      <point x="377" y="500" type="curve" smooth="yes"/>
      <point x="380" y="500"/>
      <point x="383" y="500"/>
      <point x="386" y="500" type="curve"/>
      <point x="390" y="520" type="line"/>
      <point x="268" y="520"/>
      <point x="192" y="461"/>
      <point x="149" y="362" type="curve"/>
      <point x="154" y="357" type="line"/>
      <point x="186" y="517" type="line"/>
      <point x="166" y="517" type="line"/>
    </contour>
  </outline>
</glyph>
<glyph name="ordfeminine" format="2">
  <advance width="394"/>
  <unicode hex="00AA"/>
  <outline>
    <contour>
      <point x="327" y="434" type="line"/>
      <point x="347" y="434" type="line"/>
      <point x="386" y="629" type="line" smooth="yes"/>
      <point x="401" y="705"/>
      <point x="358" y="744"/>
      <point x="279" y="744" type="curve" smooth="yes"/>
      <point x="227" y="744"/>
      <point x="177" y="726"/>
      <point x="144" y="700" type="curve"/>
      <point x="154" y="685" type="line"/>
      <point x="187" y="712"/>
      <point x="234" y="726"/>
      <point x="277" y="726" type="curve" smooth="yes"/>
      <point x="343" y="726"/>
      <point x="380" y="698"/>
      <point x="366" y="630" type="curve" smooth="yes"/>
      <point x="343" y="516" type="line"/>
      <point x="341" y="506" type="line"/>
    </contour>
    <contour>
      <point x="205" y="432" type="curve" smooth="yes"/>
      <point x="272" y="432"/>
      <point x="323" y="462"/>
      <point x="350" y="511" type="curve"/>
      <point x="345" y="523" type="line"/>
      <point x="314" y="475"/>
      <point x="270" y="448"/>
      <point x="207" y="448" type="curve" smooth="yes"/>
      <point x="149" y="448"/>
      <point x="119" y="469"/>
      <point x="119" y="508" type="curve" smooth="yes"/>
      <point x="119" y="557"/>
      <point x="159" y="587"/>
      <point x="225" y="587" type="curve" smooth="yes"/>
      <point x="365" y="587" type="line"/>
      <point x="368" y="602" type="line"/>
      <point x="228" y="602" type="line" smooth="yes"/>
      <point x="148" y="602"/>
      <point x="100" y="566"/>
      <point x="100" y="506" type="curve" smooth="yes"/>
      <point x="100" y="459"/>
      <point x="139" y="432"/>
    </contour>
  </outline>
</glyph>
<glyph name="AE" format="2">
  <advance width="1005"/>
  <unicode hex="00C6"/>
  <anchor x="428" y="0" name="bottom"/>
  <anchor x="568" y="700" name="top"/>
  <outline>
    <contour>
      <point x="-43" y="0" type="line"/>
      <point x="-18" y="0" type="line"/>
      <point x="553" y="685" type="line"/>
      <point x="537" y="681" type="line"/>
      <point x="559" y="681" type="line"/>
      <point x="563" y="700" type="line"/>
      <point x="540" y="700" type="line"/>
    </contour>
    <contour>
      <point x="143" y="211" type="line"/>
      <point x="465" y="211" type="line"/>
      <point x="469" y="230" type="line"/>
      <point x="157" y="230" type="line"/>
    </contour>
    <contour>
      <point x="418" y="0" type="line"/>
      <point x="884" y="0" type="line"/>
      <point x="888" y="19" type="line"/>
      <point x="442" y="19" type="line"/>
      <point x="574" y="681" type="line"/>
      <point x="1005" y="681" type="line"/>
      <point x="1009" y="700" type="line"/>
      <point x="558" y="700" type="line"/>
    </contour>
    <contour>
      <point x="502" y="346" type="line"/>
      <point x="893" y="346" type="line"/>
      <point x="897" y="365" type="line"/>
      <point x="506" y="365" type="line"/>
    </contour>
  </outline>
</glyph>
<glyph name="eogonek" format="2">
  <advance width="589"/>
  <unicode hex="0119"/>
  <anchor x="341" y="517" name="top"/>
  <outline>
    <contour>
      <point x="331" y="-213" type="curve" smooth="yes"/>
      <point x="360" y="-213"/>
      <point x="387" y="-204"/>
      <point x="409" y="-186" type="curve"/>
      <point x="402" y="-169" type="line"/>
      <point x="382" y="-185"/>
      <point x="357" y="-194"/>
      <point x="333" y="-194" type="curve" smooth="yes"/>
      <point x="298" y="-194"/>
      <point x="278" y="-176"/>
      <point x="278" y="-142" type="curve" smooth="yes"/>
      <point x="278" y="-89"/>
      <point x="322" y="-35"/>
      <point x="439" y="43" type="curve" smooth="yes"/>
      <point x="456" y="54"/>
      <point x="470" y="66"/>
      <point x="482" y="80" type="curve"/>
      <point x="469" y="93" type="line"/>
      <point x="428" y="45"/>
      <point x="359" y="16"/>
      <point x="281" y="16" type="curve" smooth="yes"/>
      <point x="144" y="16"/>
      <point x="70" y="85"/>
      <point x="70" y="210" type="curve" smooth="yes"/>
      <point x="70" y="377"/>
      <point x="180" y="501"/>
      <point x="327" y="501" type="curve" smooth="yes"/>
      <point x="456" y="501"/>
      <point x="540" y="418"/>
      <point x="517" y="267" type="curve"/>
      <point x="526" y="278" type="line"/>
      <point x="71" y="278" type="line"/>
      <point x="67" y="259" type="line"/>
      <point x="535" y="259" type="line"/>
      <point x="538" y="274"/>
      <point x="540" y="292"/>
      <point x="540" y="310" type="curve" smooth="yes"/>
      <point x="540" y="441"/>
      <point x="459" y="520"/>
      <point x="328" y="520" type="curve" smooth="yes"/>
      <point x="168" y="520"/>
      <point x="50" y="386"/>
      <point x="50" y="210" type="curve" smooth="yes"/>
      <point x="50" y="74"/>
      <point x="136" y="-3"/>
      <point x="279" y="-3" type="curve" smooth="yes"/>
      <point x="314" y="-3"/>
      <point x="349" y="3"/>
      <point x="381" y="14" type="curve"/>
      <point x="383" y="19" type="line"/>
      <point x="292" y="-42"/>
      <point x="259" y="-94"/>
      <point x="259" y="-144" type="curve" smooth="yes"/>
      <point x="259" y="-187"/>
      <point x="288" y="-213"/>
    </contour>
  </outline>
</glyph>
<glyph name="Oogonek" format="2">
  <advance width="836"/>
  <unicode hex="01EA"/>
  <anchor x="506" y="700" name="top"/>
  <outline>
    <contour>
      <point x="317" y="-213" type="curve" smooth="yes"/>
      <point x="347" y="-213"/>
      <point x="375" y="-204"/>
      <point x="398" y="-186" type="curve"/>
      <point x="390" y="-169" type="line"/>
      <point x="370" y="-185"/>
      <point x="344" y="-194"/>
      <point x="319" y="-194" type="curve" smooth="yes"/>
      <point x="283" y="-194"/>
      <point x="262" y="-176"/>
      <point x="262" y="-142" type="curve" smooth="yes"/>
      <point x="262" y="-88"/>
      <point x="322" y="-22"/>
      <point x="468" y="4" type="curve" smooth="yes"/>
      <point x="676" y="41"/>
      <point x="802" y="219"/>
      <point x="802" y="420" type="curve" smooth="yes"/>
      <point x="802" y="589"/>
      <point x="691" y="703"/>
      <point x="487" y="703" type="curve" smooth="yes"/>
      <point x="229" y="703"/>
      <point x="71" y="504"/>
      <point x="71" y="280" type="curve" smooth="yes"/>
      <point x="71" y="111"/>
      <point x="182" y="-3"/>
      <point x="386" y="-3" type="curve"/>
      <point x="383" y="0" type="line"/>
      <point x="284" y="-36"/>
      <point x="242" y="-89"/>
      <point x="242" y="-144" type="curve" smooth="yes"/>
      <point x="242" y="-187"/>
      <point x="272" y="-213"/>
    </contour>
    <contour>
      <point x="388" y="16" type="curve" smooth="yes"/>
      <point x="192" y="16"/>
      <point x="91" y="123"/>
      <point x="91" y="280" type="curve" smooth="yes"/>
      <point x="91" y="499"/>
      <point x="246" y="684"/>
      <point x="485" y="684" type="curve" smooth="yes"/>
      <point x="681" y="684"/>
      <point x="782" y="577"/>
      <point x="782" y="420" type="curve" smooth="yes"/>
      <point x="782" y="201"/>
      <point x="627" y="16"/>
    </contour>
  </outline>
</glyph>
<glyph name="jdotless" format="2">
  <advance width="255"/>
  <unicode hex="0237"/>
  <anchor x="181" y="517" name="top"/>
  <outline>
    <contour>
      <point x="-70" y="-197" type="curve" smooth="yes"/>
      <point x="10" y="-197"/>
      <point x="57" y="-155"/>
      <point x="74" y="-69" type="curve" smooth="yes"/>
      <point x="191" y="517" type="line"/>
      <point x="171" y="517" type="line"/>
      <point x="55" y="-63" type="line" smooth="yes"/>
      <point x="39" y="-144"/>
      <point x="-2" y="-178"/>
      <point x="-68" y="-178" type="curve" smooth="yes"/>
      <point x="-104" y="-178"/>
      <point x="-132" y="-167"/>
      <point x="-154" y="-146" type="curve"/>
      <point x="-169" y="-161" type="line"/>
      <point x="-147" y="-184"/>
      <point x="-110" y="-197"/>
    </contour>
  </outline>
</glyph>
<glyph name="ringhalfright" format="2">
  <advance width="600"/>
  <unicode hex="02BE"/>
  <outline>
    <contour>
      <point x="372" y="619" type="curve"/>
      <point x="368" y="600" type="line"/>
      <point x="375" y="599"/>
      <point x="380" y="599"/>
      <point x="386" y="599" type="curve" smooth="yes"/>
      <point x="439" y="599"/>
      <point x="478" y="642"/>
      <point x="478" y="692" type="curve" smooth="yes"/>
      <point x="478" y="735"/>
      <point x="449" y="772"/>
      <point x="404" y="780" type="curve"/>
      <point x="401" y="762" type="line"/>
      <point x="436" y="755"/>
      <point x="458" y="727"/>
      <point x="458" y="692" type="curve" smooth="yes"/>
      <point x="458" y="651"/>
      <point x="428" y="618"/>
      <point x="386" y="618" type="curve" smooth="yes"/>
      <point x="381" y="618"/>
      <point x="377" y="618"/>
    </contour>
  </outline>
</glyph>
<glyph name="ringcomb" format="2">
  <unicode hex="030A"/>
  <anchor x="351" y="517" name="_top"/>
  <anchor x="392" y="720" name="top"/>
  <outline>
    <contour>
      <point x="386" y="597" type="curve" smooth="yes"/>
      <point x="440" y="597"/>
      <point x="479" y="638"/>
      <point x="479" y="687" type="curve" smooth="yes"/>
      <point x="479" y="737"/>
      <point x="439" y="780"/>
      <point x="386" y="780" type="curve" smooth="yes"/>
      <point x="333" y="780"/>
      <point x="294" y="737"/>
      <point x="294" y="687" type="curve" smooth="yes"/>
      <point x="294" y="638"/>
      <point x="332" y="597"/>
    </contour>
    <contour>
      <point x="386" y="616" type="curve" smooth="yes"/>
      <point x="343" y="616"/>
      <point x="314" y="647"/>
      <point x="314" y="687" type="curve" smooth="yes"/>
      <point x="314" y="728"/>
      <point x="344" y="761"/>
      <point x="386" y="761" type="curve" smooth="yes"/>
      <point x="428" y="761"/>
      <point x="459" y="727"/>
      <point x="459" y="687" type="curve" smooth="yes"/>
      <point x="459" y="648"/>
      <point x="429" y="616"/>
    </contour>
  </outline>
</glyph>
<glyph name="strokelongcomb" format="2">
  <unicode hex="0336"/>
  <anchor x="436" y="441" name="_center"/>
  <outline>
    <contour>
      <point x="46" y="432" type="line"/>
      <point x="822" y="432" type="line"/>
      <point x="826" y="451" type="line"/>
      <point x="50" y="451" type="line"/>
    </contour>
  </outline>
</glyph>
<glyph name="Zhe-cy" format="2">
  <advance width="975"/>
  <unicode hex="0416"/>
  <anchor x="866" y="0" name="bottomleft"/>
  <anchor x="890" y="0" name="bottomright"/>
  <anchor x="576" y="700" name="top"/>
  <outline>
    <contour>
      <point x="866" y="0" type="line"/>
      <point x="890" y="0" type="line"/>
      <point x="695" y="365" type="line"/>
      <point x="676" y="357" type="line"/>
    </contour>
    <contour>
      <point x="507" y="347" type="line"/>
      <point x="696" y="347" type="line"/>
      <point x="699" y="366" type="line"/>
      <point x="510" y="366" type="line"/>
    </contour>
    <contour>
      <point x="692" y="349" type="line"/>
      <point x="1010" y="700" type="line"/>
      <point x="984" y="700" type="line"/>
      <point x="676" y="357" type="line"/>
    </contour>
    <contour>
      <point x="6" y="0" type="line"/>
      <point x="338" y="357" type="line"/>
      <point x="321" y="365" type="line"/>
      <point x="-20" y="0" type="line"/>
    </contour>
    <contour>
      <point x="445" y="0" type="line"/>
      <point x="585" y="700" type="line"/>
      <point x="565" y="700" type="line"/>
      <point x="425" y="0" type="line"/>
    </contour>
    <contour>
      <point x="503" y="347" type="line"/>
      <point x="506" y="366" type="line"/>
      <point x="317" y="366" type="line"/>
      <point x="314" y="347" type="line"/>
    </contour>
    <contour>
      <point x="318" y="349" type="line"/>
      <point x="338" y="357" type="line"/>
      <point x="166" y="700" type="line"/>
      <point x="142" y="700" type="line"/>
    </contour>
  </outline>
</glyph>
<glyph name="Pe-cy" format="2">
  <advance width="833"/>
  <unicode hex="041F"/>
  <anchor x="624" y="0" name="bottomleft"/>
  <outline>
    <contour>
      <point x="85" y="0" type="line"/>
      <point x="105" y="0" type="line"/>
      <point x="243" y="690" type="line"/>
      <point x="232" y="681" type="line"/>
      <point x="769" y="681" type="line"/>
      <point x="762" y="690" type="line"/>
      <point x="624" y="0" type="line"/>
      <point x="644" y="0" type="line"/>
      <point x="784" y="700" type="line"/>
      <point x="225" y="700" type="line"/>
    </contour>
  </outline>
</glyph>
<glyph name="U-cy" format="2">
  <advance width="658"/>
  <unicode hex="0423"/>
  <anchor x="407" y="700" name="top"/>
  <outline>
    <contour>
      <point x="56" y="30" type="curve"/>
      <point x="45" y="13" type="line"/>
      <point x="111" y="-18"/>
      <point x="202" y="-11"/>
      <point x="275" y="87" type="curve" smooth="yes"/>
      <point x="727" y="700" type="line"/>
      <point x="704" y="700" type="line"/>
      <point x="306" y="158" type="line"/>
      <point x="302" y="153" type="line"/>
      <point x="256" y="94" type="line" smooth="yes"/>
      <point x="189" y="8"/>
      <point x="114" y="3"/>
    </contour>
    <contour>
      <point x="301" y="136" type="line"/>
      <point x="316" y="158" type="line"/>
      <point x="140" y="700" type="line"/>
      <point x="117" y="700" type="line"/>
    </contour>
  </outline>
</glyph>
<glyph name="Che-cy" format="2">
  <advance width="719"/>
  <unicode hex="0427"/>
  <anchor x="510" y="0" name="bottomleft"/>
  <anchor x="647" y="0" name="bottomright"/>
  <anchor x="416" y="700" name="top"/>
  <outline>
    <contour>
      <point x="583" y="319" type="curve"/>
      <point x="588" y="340" type="line"/>
      <point x="486" y="297"/>
      <point x="390" y="274"/>
      <point x="312" y="274" type="curve" smooth="yes"/>
      <point x="174" y="274"/>
      <point x="106" y="344"/>
      <point x="130" y="461" type="curve" smooth="yes"/>
      <point x="177" y="700" type="line"/>
      <point x="157" y="700" type="line"/>
      <point x="110" y="463" type="line" smooth="yes"/>
      <point x="84" y="334"/>
      <point x="160" y="255"/>
      <point x="312" y="255" type="curve" smooth="yes"/>
      <point x="391" y="255"/>
      <point x="486" y="277"/>
    </contour>
    <contour>
      <point x="510" y="0" type="line"/>
      <point x="530" y="0" type="line"/>
      <point x="670" y="700" type="line"/>
      <point x="650" y="700" type="line"/>
    </contour>
  </outline>
</glyph>
<glyph name="zhe-cy" format="2">
  <advance width="778"/>
  <unicode hex="0436"/>
  <anchor x="676" y="0" name="bottomleft"/>
  <anchor x="698" y="0" name="bottomright"/>
  <anchor x="441" y="517" name="top"/>
  <outline>
    <contour>
      <point x="676" y="0" type="line"/>
      <point x="698" y="0" type="line"/>
      <point x="544" y="271" type="line"/>
      <point x="527" y="263" type="line"/>
    </contour>
    <contour>
      <point x="390" y="254" type="line"/>
      <point x="545" y="254" type="line"/>
      <point x="549" y="272" type="line"/>
      <point x="394" y="272" type="line"/>
    </contour>
    <contour>
      <point x="545" y="257" type="line"/>
      <point x="788" y="517" type="line"/>
      <point x="763" y="517" type="line"/>
      <point x="526" y="263" type="line"/>
    </contour>
    <contour>
      <point x="2" y="0" type="line"/>
      <point x="255" y="263" type="line"/>
      <point x="237" y="271" type="line"/>
      <point x="-25" y="0" type="line"/>
    </contour>
    <contour>
      <point x="347" y="0" type="line"/>
      <point x="451" y="517" type="line"/>
      <point x="431" y="517" type="line"/>
      <point x="327" y="0" type="line"/>
    </contour>
    <contour>
      <point x="385" y="254" type="line"/>
      <point x="389" y="272" type="line"/>
      <point x="236" y="272" type="line"/>
      <point x="232" y="254" type="line"/>
    </contour>
    <contour>
      <point x="235" y="257" type="line"/>
      <point x="253" y="263" type="line"/>
      <point x="117" y="517" type="line"/>
      <point x="95" y="517" type="line"/>
    </contour>
  </outline>
</glyph>
<glyph name="ii-cy" format="2">
  <advance width="672"/>
  <unicode hex="0438"/>
  <anchor x="484" y="0" name="bottomleft"/>
  <anchor x="594" y="0" name="bottomright"/>
  <anchor x="388" y="517" name="top"/>
  <outline>
    <contour>
      <point x="64" y="0" type="line"/>
      <point x="84" y="0" type="line"/>
      <point x="581" y="483" type="line"/>
      <point x="484" y="0" type="line"/>
      <point x="504" y="0" type="line"/>
      <point x="608" y="517" type="line"/>
      <point x="588" y="517" type="line"/>
      <point x="91" y="34" type="line"/>
      <point x="188" y="517" type="line"/>
      <point x="168" y="517" type="line"/>
    </contour>
  </outline>
</glyph>
<glyph name="tse-cy" format="2">
  <advance width="671"/>
  <unicode hex="0446"/>
  <anchor x="445" y="0" name="_bottomleft"/>
  <outline>
    <contour>
      <point x="64" y="0" type="line"/>
      <point x="487" y="0" type="line"/>
      <point x="591" y="517" type="line"/>
      <point x="571" y="517" type="line"/>
      <point x="471" y="18" type="line"/>
      <point x="88" y="18" type="line"/>
      <point x="188" y="517" type="line"/>
      <point x="168" y="517" type="line"/>
    </contour>
    <contour>
      <point x="529" y="-134" type="line"/>
      <point x="549" y="-134" type="line"/>
      <point x="580" y="18" type="line"/>
      <point x="471" y="18" type="line"/>
      <point x="467" y="0" type="line"/>
      <point x="564" y="0" type="line"/>
      <point x="558" y="8" type="line"/>
    </contour>
  </outline>
</glyph>
<glyph name="tshe-cy" format="2">
  <advance width="660"/>
  <unicode hex="045B"/>
  <anchor x="287" y="0" name="bottom"/>
  <anchor x="267" y="630" name="center"/>
  <anchor x="225" y="742" name="top"/>
  <anchor x="283" y="517" name="topright"/>
  <outline>
    <contour>
      <point x="47" y="621" type="line"/>
      <point x="484" y="621" type="line"/>
      <point x="488" y="640" type="line"/>
      <point x="51" y="640" type="line"/>
    </contour>
    <component base="h" xOffset="3"/>
  </outline>
</glyph>
<glyph name="Ghemiddlehook-cy" format="2">
  <advance width="699"/>
  <unicode hex="0494"/>
  <outline>
    <contour>
      <point x="85" y="0" type="line"/>
      <point x="105" y="0" type="line"/>
      <point x="243" y="690" type="line"/>
      <point x="232" y="681" type="line"/>
      <point x="657" y="681" type="line"/>
      <point x="661" y="700" type="line"/>
      <point x="225" y="700" type="line"/>
    </contour>
    <contour>
      <point x="247" y="-126" type="line"/>
      <point x="437" y="-163"/>
      <point x="617" y="5"/>
      <point x="617" y="201" type="curve" smooth="yes"/>
      <point x="617" y="433"/>
      <point x="364" y="451"/>
      <point x="153" y="313" type="curve"/>
      <point x="160" y="296" type="line"/>
      <point x="360" y="427"/>
      <point x="597" y="414"/>
      <point x="597" y="199" type="curve" smooth="yes"/>
      <point x="597" y="25"/>
      <point x="441" y="-140"/>
      <point x="253" y="-106" type="curve"/>
    </contour>
  </outline>
</glyph>
<glyph name="cheverticalstroke-cy" format="2">
  <advance width="577"/>
  <unicode hex="04B9"/>
  <outline>
    <contour>
      <point x="226" y="72" type="line"/>
      <point x="243" y="72" type="line"/>
      <point x="297" y="338" type="line"/>
      <point x="280" y="338" type="line"/>
    </contour>
    <component base="che-cy"/>
  </outline>
</glyph>
<glyph name="gestrokehook-cy" format="2">
  <advance width="450"/>
  <unicode hex="04FB"/>
  <outline>
    <contour>
      <point x="79" y="0" type="line"/>
      <point x="99" y="0" type="line"/>
      <point x="198" y="498" type="line"/>
      <point x="474" y="498" type="line"/>
      <point x="478" y="517" type="line"/>
      <point x="182" y="517" type="line"/>
    </contour>
    <contour>
      <point x="25" y="-197" type="curve" smooth="yes"/>
      <point x="104" y="-197"/>
      <point x="157" y="-146"/>
      <point x="172" y="-70" type="curve" smooth="yes"/>
      <point x="190" y="18" type="line"/>
      <point x="83" y="18" type="line"/>
      <point x="79" y="0" type="line"/>
      <point x="174" y="0" type="line"/>
      <point x="168" y="8" type="line"/>
      <point x="153" y="-65" type="line" smooth="yes"/>
      <point x="138" y="-138"/>
      <point x="94" y="-178"/>
      <point x="27" y="-178" type="curve" smooth="yes"/>
      <point x="-9" y="-178"/>
      <point x="-37" y="-167"/>
      <point x="-55" y="-146" type="curve"/>
      <point x="-72" y="-160" type="line"/>
      <point x="-53" y="-185"/>
      <point x="-15" y="-197"/>
    </contour>
    <contour>
      <point x="46" y="232" type="line"/>
      <point x="385" y="232" type="line"/>
      <point x="389" y="251" type="line"/>
      <point x="50" y="251" type="line"/>
    </contour>
  </outline>
</glyph>
<glyph name="enlefthook-cy" format="2">
  <advance width="662"/>
  <unicode hex="0529"/>
  <outline>
    <contour>
      <point x="577" y="517" type="line"/>
      <point x="528" y="270" type="line"/>
      <point x="141" y="270" type="line"/>
      <point x="190" y="517" type="line"/>
      <point x="170" y="517" type="line"/>
      <point x="54" y="-65" type="line" smooth="yes"/>
      <point x="39" y="-138"/>
      <point x="-5" y="-178"/>
      <point x="-72" y="-178" type="curve" smooth="yes"/>
      <point x="-108" y="-178"/>
      <point x="-136" y="-167"/>
      <point x="-154" y="-146" type="curve"/>
      <point x="-171" y="-160" type="line"/>
      <point x="-152" y="-185"/>
      <point x="-114" y="-197"/>
      <point x="-74" y="-197" type="curve" smooth="yes"/>
      <point x="5" y="-197"/>
      <point x="58" y="-146"/>
      <point x="73" y="-70" type="curve" smooth="yes"/>
      <point x="137" y="252" type="line"/>
      <point x="524" y="252" type="line"/>
      <point x="474" y="0" type="line"/>
      <point x="494" y="0" type="line"/>
      <point x="597" y="517" type="line"/>
    </contour>
  </outline>
</glyph>
<glyph name="rupeeIndian" format="2">
  <advance width="715"/>
  <unicode hex="20B9"/>
  <outline>
    <contour>
      <point x="133" y="260" type="line"/>
      <point x="290" y="260" type="line" smooth="yes"/>
      <point x="476" y="260"/>
      <point x="593" y="350"/>
      <point x="593" y="522" type="curve" smooth="yes"/>
      <point x="593" y="586"/>
      <point x="566" y="661"/>
      <point x="460" y="688" type="curve"/>
      <point x="459" y="681" type="line"/>
      <point x="749" y="681" type="line"/>
      <point x="753" y="700" type="line"/>
      <point x="101" y="700" type="line"/>
      <point x="97" y="680" type="line"/>
      <point x="370" y="681" type="line" smooth="yes"/>
      <point x="500" y="681"/>
      <point x="573" y="624"/>
      <point x="573" y="522" type="curve" smooth="yes"/>
      <point x="573" y="361"/>
      <point x="469" y="279"/>
      <point x="289" y="279" type="curve" smooth="yes"/>
      <point x="137" y="279" type="line"/>
    </contour>
    <contour>
      <point x="480" y="0" type="line"/>
      <point x="503" y="0" type="line"/>
      <point x="373" y="274" type="line"/>
      <point x="350" y="274" type="line"/>
    </contour>
    <contour>
      <point x="69" y="541" type="line"/>
      <point x="721" y="541" type="line"/>
      <point x="725" y="560" type="line"/>
      <point x="73" y="560" type="line"/>
    </contour>
  </outline>
</glyph>
<glyph name="liraTurkish" format="2">
  <advance width="662"/>
  <unicode hex="20BA"/>
  <guideline x="684" y="477" angle="0"/>
  <guideline x="541" y="366" angle="0"/>
  <outline>
    <contour>
      <point x="98" y="0" type="line"/>
      <point x="183" y="0" type="line" smooth="yes"/>
      <point x="443" y="0"/>
      <point x="585" y="125"/>
      <point x="630" y="349" type="curve"/>
      <point x="611" y="349" type="line"/>
      <point x="569" y="138"/>
      <point x="431" y="20"/>
      <point x="187" y="20" type="curve" smooth="yes"/>
      <point x="122" y="20" type="line"/>
      <point x="258" y="699" type="line"/>
      <point x="238" y="699" type="line"/>
    </contour>
    <contour>
      <point x="25" y="235" type="line"/>
      <point x="510" y="464" type="line"/>
      <point x="514" y="485" type="line"/>
      <point x="29" y="256" type="line"/>
    </contour>
    <contour>
      <point x="53" y="375" type="line"/>
      <point x="538" y="604" type="line"/>
      <point x="542" y="625" type="line"/>
      <point x="57" y="396" type="line"/>
    </contour>
  </outline>
</glyph>
<glyph name="partialdiff" format="2">
  <advance width="700"/>
  <unicode hex="2202"/>
  <outline>
    <contour>
      <point x="289" y="-3" type="curve" smooth="yes"/>
      <point x="519" y="-3"/>
      <point x="633" y="251"/>
      <point x="633" y="450" type="curve" smooth="yes"/>
      <point x="633" y="618"/>
      <point x="533" y="703"/>
      <point x="373" y="703" type="curve" smooth="yes"/>
      <point x="321" y="703"/>
      <point x="262" y="693"/>
      <point x="227" y="679" type="curve"/>
      <point x="231" y="661" type="line"/>
      <point x="268" y="675"/>
      <point x="323" y="684"/>
      <point x="374" y="684" type="curve" smooth="yes"/>
      <point x="525" y="684"/>
      <point x="613" y="606"/>
      <point x="613" y="448" type="curve" smooth="yes"/>
      <point x="613" y="371"/>
      <point x="597" y="278"/>
      <point x="555" y="205" type="curve"/>
      <point x="560" y="199" type="line"/>
      <point x="586" y="336"/>
      <point x="500" y="430"/>
      <point x="359" y="430" type="curve" smooth="yes"/>
      <point x="201" y="430"/>
      <point x="83" y="332"/>
      <point x="83" y="180" type="curve" smooth="yes"/>
      <point x="83" y="69"/>
      <point x="162" y="-3"/>
    </contour>
    <contour>
      <point x="292" y="16" type="curve" smooth="yes"/>
      <point x="172" y="16"/>
      <point x="103" y="78"/>
      <point x="103" y="181" type="curve" smooth="yes"/>
      <point x="103" y="318"/>
      <point x="208" y="411"/>
      <point x="359" y="411" type="curve" smooth="yes"/>
      <point x="475" y="411"/>
      <point x="547" y="348"/>
      <point x="547" y="246" type="curve" smooth="yes"/>
      <point x="547" y="118"/>
      <point x="418" y="16"/>
    </contour>
  </outline>
</glyph>
<glyph name="emptyset" format="2">
  <advance width="560"/>
  <unicode hex="2205"/>
  <outline>
    <contour>
      <point x="76" y="103" type="line"/>
      <point x="522" y="519" type="line"/>
      <point x="508" y="533" type="line"/>
      <point x="62" y="117" type="line"/>
    </contour>
    <contour>
      <point x="292" y="127" type="curve" smooth="yes"/>
      <point x="398" y="127"/>
      <point x="485" y="214"/>
      <point x="485" y="320" type="curve" smooth="yes"/>
      <point x="485" y="427"/>
      <point x="398" y="513"/>
      <point x="292" y="513" type="curve" smooth="yes"/>
      <point x="185" y="513"/>
      <point x="99" y="427"/>
      <point x="99" y="320" type="curve" smooth="yes"/>
      <point x="99" y="214"/>
      <point x="185" y="127"/>
    </contour>
    <contour>
      <point x="292" y="147" type="curve" smooth="yes"/>
      <point x="196" y="147"/>
      <point x="119" y="225"/>
      <point x="119" y="320" type="curve" smooth="yes"/>
      <point x="119" y="415"/>
      <point x="196" y="493"/>
      <point x="292" y="493" type="curve" smooth="yes"/>
      <point x="388" y="493"/>
      <point x="465" y="415"/>
      <point x="465" y="320" type="curve" smooth="yes"/>
      <point x="465" y="225"/>
      <point x="388" y="147"/>
    </contour>
  </outline>
</glyph>
<glyph name="product" format="2">
  <advance width="816"/>
  <unicode hex="220F"/>
  <outline>
    <contour>
      <point x="43" y="-194" type="line"/>
      <point x="63" y="-194" type="line"/>
      <point x="238" y="681" type="line"/>
      <point x="747" y="681" type="line"/>
      <point x="572" y="-194" type="line"/>
      <point x="592" y="-194" type="line"/>
      <point x="771" y="700" type="line"/>
      <point x="222" y="700" type="line"/>
    </contour>
  </outline>
</glyph>
<glyph name="minus" format="2">
  <advance width="560"/>
  <unicode hex="2212"/>
  <outline>
    <contour>
      <point x="91" y="340" type="line"/>
      <point x="502" y="340" type="line"/>
      <point x="506" y="359" type="line"/>
      <point x="95" y="359" type="line"/>
    </contour>
  </outline>
</glyph>
<glyph name="greaterequal" format="2">
  <advance width="560"/>
  <unicode hex="2265"/>
  <outline>
    <contour>
      <point x="58" y="168" type="line"/>
      <point x="502" y="339" type="line"/>
      <point x="506" y="361" type="line"/>
      <point x="130" y="532" type="line"/>
      <point x="126" y="512" type="line"/>
      <point x="491" y="347" type="line"/>
      <point x="493" y="355" type="line"/>
      <point x="63" y="191" type="line"/>
    </contour>
    <contour>
      <point x="23" y="0" type="line"/>
      <point x="433" y="0" type="line"/>
      <point x="437" y="19" type="line"/>
      <point x="27" y="19" type="line"/>
    </contour>
  </outline>
</glyph>
<glyph name="G.ss01" format="2">
  <advance width="774"/>
  <anchor x="350" y="0" name="bottom"/>
  <anchor x="490" y="700" name="top"/>
  <outline>
    <contour>
      <point x="386" y="-3" type="curve" smooth="yes"/>
      <point x="476" y="-3"/>
      <point x="560" y="24"/>
      <point x="615" y="72" type="curve"/>
      <point x="618" y="95" type="line"/>
      <point x="551" y="41"/>
      <point x="477" y="16"/>
      <point x="388" y="16" type="curve" smooth="yes"/>
      <point x="192" y="16"/>
      <point x="91" y="123"/>
      <point x="91" y="280" type="curve" smooth="yes"/>
      <point x="91" y="498"/>
      <point x="246" y="684"/>
      <point x="490" y="684" type="curve" smooth="yes"/>
      <point x="593" y="684"/>
      <point x="670" y="656"/>
      <point x="718" y="601" type="curve"/>
      <point x="732" y="614" type="line"/>
      <point x="685" y="670"/>
      <point x="599" y="703"/>
      <point x="492" y="703" type="curve" smooth="yes"/>
      <point x="229" y="703"/>
      <point x="71" y="504"/>
      <point x="71" y="280" type="curve" smooth="yes"/>
      <point x="71" y="111"/>
      <point x="182" y="-3"/>
    </contour>
    <contour>
      <point x="591" y="0" type="line"/>
      <point x="610" y="0" type="line"/>
      <point x="679" y="343" type="line"/>
      <point x="660" y="343" type="line"/>
      <point x="607" y="80" type="line"/>
      <point x="606" y="75" type="line"/>
    </contour>
  </outline>
</glyph>
<glyph name="Lje-cy.ss01" format="2">
  <advance width="1189"/>
  <outline>
    <contour>
      <point x="-7" y="-3" type="curve" smooth="yes"/>
      <point x="145" y="-3"/>
      <point x="204" y="247"/>
      <point x="237" y="388" type="curve" smooth="yes"/>
      <point x="308" y="690" type="line"/>
      <point x="297" y="681" type="line"/>
      <point x="692" y="681" type="line"/>
      <point x="707" y="700" type="line"/>
      <point x="290" y="700" type="line"/>
      <point x="217" y="391" type="line" smooth="yes"/>
      <point x="185" y="257"/>
      <point x="130" y="17"/>
      <point x="-5" y="17" type="curve" smooth="yes"/>
      <point x="-14" y="17"/>
      <point x="-24" y="18"/>
      <point x="-38" y="21" type="curve"/>
      <point x="-44" y="2" type="line"/>
      <point x="-29" y="-2"/>
      <point x="-17" y="-3"/>
    </contour>
    <contour>
      <point x="817" y="-3" type="curve" smooth="yes"/>
      <point x="1003" y="-3"/>
      <point x="1131" y="105"/>
      <point x="1131" y="263" type="curve" smooth="yes"/>
      <point x="1131" y="388"/>
      <point x="1050" y="466"/>
      <point x="902" y="466" type="curve" smooth="yes"/>
      <point x="797" y="466"/>
      <point x="703" y="426"/>
      <point x="620" y="346" type="curve"/>
      <point x="627" y="329" type="line"/>
      <point x="705" y="406"/>
      <point x="798" y="446"/>
      <point x="901" y="446" type="curve" smooth="yes"/>
      <point x="1034" y="446"/>
      <point x="1110" y="379"/>
      <point x="1110" y="261" type="curve" smooth="yes"/>
      <point x="1110" y="117"/>
      <point x="992" y="17"/>
      <point x="818" y="17" type="curve" smooth="yes"/>
      <point x="658" y="17"/>
      <point x="587" y="101"/>
      <point x="614" y="238" type="curve" smooth="yes"/>
      <point x="706" y="700" type="line"/>
      <point x="686" y="700" type="line"/>
      <point x="594" y="238" type="line" smooth="yes"/>
      <point x="564" y="89"/>
      <point x="645" y="-3"/>
    </contour>
  </outline>
</glyph>
<glyph name="M.ss01" format="2">
  <advance width="1200"/>
  <anchor x="549" y="0" name="bottom"/>
  <anchor x="700" y="700" name="top"/>
  <outline>
    <contour>
      <point x="81" y="0" type="line"/>
      <point x="101" y="0" type="line"/>
      <point x="197" y="445" type="line" smooth="yes"/>
      <point x="233" y="611"/>
      <point x="334" y="684"/>
      <point x="464" y="684" type="curve" smooth="yes"/>
      <point x="606" y="684"/>
      <point x="668" y="604"/>
      <point x="633" y="441" type="curve" smooth="yes"/>
      <point x="538" y="0" type="line"/>
      <point x="559" y="0" type="line"/>
      <point x="649" y="421" type="line" smooth="yes"/>
      <point x="688" y="603"/>
      <point x="785" y="684"/>
      <point x="920" y="684" type="curve" smooth="yes"/>
      <point x="1063" y="684"/>
      <point x="1126" y="604"/>
      <point x="1091" y="441" type="curve" smooth="yes"/>
      <point x="996" y="0" type="line"/>
      <point x="1015" y="0" type="line"/>
      <point x="1110" y="442" type="line" smooth="yes"/>
      <point x="1147" y="615"/>
      <point x="1071" y="703"/>
      <point x="921" y="703" type="curve" smooth="yes"/>
      <point x="810" y="703"/>
      <point x="715" y="649"/>
      <point x="659" y="518" type="curve"/>
      <point x="663" y="518" type="line"/>
      <point x="665" y="641"/>
      <point x="592" y="703"/>
      <point x="466" y="703" type="curve" smooth="yes"/>
      <point x="360" y="703"/>
      <point x="266" y="655"/>
      <point x="214" y="549" type="curve"/>
      <point x="219" y="544" type="line"/>
      <point x="252" y="700" type="line"/>
      <point x="233" y="700" type="line"/>
    </contour>
  </outline>
</glyph>
<glyph name="T_h" format="2">
  <advance width="1148"/>
  <outline>
    <contour>
      <point x="212" y="0" type="line"/>
      <point x="232" y="0" type="line"/>
      <point x="368" y="681" type="line"/>
      <point x="688" y="681" type="line"/>
      <point x="692" y="700" type="line"/>
      <point x="92" y="700" type="line"/>
      <point x="88" y="681" type="line"/>
      <point x="348" y="681" type="line"/>
    </contour>
    <contour>
      <point x="873" y="520" type="curve" smooth="yes"/>
      <point x="764" y="520"/>
      <point x="675" y="472"/>
      <point x="626" y="362" type="curve"/>
      <point x="636" y="367" type="line"/>
      <point x="703" y="700" type="line"/>
      <point x="683" y="700" type="line"/>
      <point x="543" y="0" type="line"/>
      <point x="563" y="0" type="line"/>
      <point x="620" y="287" type="line" smooth="yes"/>
      <point x="648" y="427"/>
      <point x="740" y="501"/>
      <point x="871" y="501" type="curve" smooth="yes"/>
      <point x="999" y="501"/>
      <point x="1052" y="426"/>
      <point x="1028" y="305" type="curve" smooth="yes"/>
      <point x="967" y="0" type="line"/>
      <point x="987" y="0" type="line"/>
      <point x="1048" y="305" type="line" smooth="yes"/>
      <point x="1073" y="431"/>
      <point x="1016" y="520"/>
    </contour>
  </outline>
</glyph>
<glyph name="Yat-cy.ss01" format="2">
  <advance width="808"/>
  <anchor x="310" y="590" name="center"/>
  <outline>
    <contour>
      <point x="82" y="580" type="line"/>
      <point x="530" y="580" type="line"/>
      <point x="534" y="599" type="line"/>
      <point x="86" y="599" type="line"/>
    </contour>
    <contour>
      <point x="432" y="-3" type="curve" smooth="yes"/>
      <point x="623" y="-3"/>
      <point x="750" y="104"/>
      <point x="750" y="262" type="curve" smooth="yes"/>
      <point x="750" y="391"/>
      <point x="666" y="466"/>
      <point x="521" y="466" type="curve" smooth="yes"/>
      <point x="416" y="466"/>
      <point x="322" y="426"/>
      <point x="239" y="346" type="curve"/>
      <point x="246" y="329" type="line"/>
      <point x="324" y="406"/>
      <point x="417" y="446"/>
      <point x="520" y="446" type="curve" smooth="yes"/>
      <point x="653" y="446"/>
      <point x="729" y="379"/>
      <point x="729" y="261" type="curve" smooth="yes"/>
      <point x="729" y="116"/>
      <point x="611" y="17"/>
      <point x="433" y="17" type="curve" smooth="yes"/>
      <point x="278" y="17"/>
      <point x="206" y="100"/>
      <point x="233" y="238" type="curve" smooth="yes"/>
      <point x="333" y="742" type="line"/>
      <point x="313" y="742" type="line"/>
      <point x="213" y="238" type="line" smooth="yes"/>
      <point x="183" y="89"/>
      <point x="264" y="-3"/>
    </contour>
  </outline>
</glyph>
<glyph name="circumflexcomb.loclVIET" format="2">
  <anchor x="351" y="517" name="_top"/>
  <anchor x="371" y="615" name="top"/>
  <outline>
    <contour>
      <point x="232" y="607" type="line"/>
      <point x="263" y="607" type="line"/>
      <point x="385" y="674" type="line"/>
      <point x="375" y="674" type="line"/>
      <point x="479" y="607" type="line"/>
      <point x="508" y="607" type="line"/>
      <point x="395" y="687" type="line"/>
      <point x="365" y="687" type="line"/>
    </contour>
  </outline>
</glyph>
<glyph name="descender-cy.short" format="2">
  <advance width="271"/>
  <anchor x="20" y="0" name="_bottomleft"/>
  <outline>
    <contour>
      <point x="63" y="-121" type="line"/>
      <point x="82" y="-121" type="line"/>
      <point x="110" y="18" type="line"/>
      <point x="24" y="18" type="line"/>
      <point x="20" y="0" type="line"/>
      <point x="95" y="0" type="line"/>
      <point x="89" y="8" type="line"/>
    </contour>
  </outline>
</glyph>
<glyph name="eight.tf" format="2">
  <advance width="700"/>
  <guideline x="719" y="367" angle="0"/>
  <guideline x="743" y="386" angle="0"/>
  <outline>
    <contour>
      <point x="320" y="-3" type="curve" smooth="yes"/>
      <point x="502" y="-3"/>
      <point x="610" y="79"/>
      <point x="610" y="200" type="curve" smooth="yes"/>
      <point x="610" y="305"/>
      <point x="517" y="373"/>
      <point x="348" y="373" type="curve" smooth="yes"/>
      <point x="165" y="373"/>
      <point x="60" y="293"/>
      <point x="60" y="172" type="curve" smooth="yes"/>
      <point x="60" y="67"/>
      <point x="152" y="-3"/>
    </contour>
    <contour>
      <point x="322" y="16" type="curve" smooth="yes"/>
      <point x="166" y="16"/>
      <point x="80" y="77"/>
      <point x="80" y="172" type="curve" smooth="yes"/>
      <point x="80" y="281"/>
      <point x="174" y="356"/>
      <point x="346" y="356" type="curve" smooth="yes"/>
      <point x="503" y="356"/>
      <point x="590" y="295"/>
      <point x="590" y="199" type="curve" smooth="yes"/>
      <point x="590" y="91"/>
      <point x="494" y="16"/>
    </contour>
    <contour>
      <point x="391" y="358" type="curve" smooth="yes"/>
      <point x="562" y="358"/>
      <point x="654" y="434"/>
      <point x="654" y="542" type="curve" smooth="yes"/>
      <point x="654" y="639"/>
      <point x="564" y="703"/>
      <point x="415" y="703" type="curve" smooth="yes"/>
      <point x="253" y="703"/>
      <point x="154" y="627"/>
      <point x="154" y="516" type="curve" smooth="yes"/>
      <point x="154" y="422"/>
      <point x="235" y="358"/>
    </contour>
    <contour>
      <point x="393" y="375" type="curve" smooth="yes"/>
      <point x="251" y="375"/>
      <point x="174" y="432"/>
      <point x="174" y="520" type="curve" smooth="yes"/>
      <point x="174" y="617"/>
      <point x="263" y="684"/>
      <point x="413" y="684" type="curve" smooth="yes"/>
      <point x="552" y="684"/>
      <point x="634" y="628"/>
      <point x="634" y="539" type="curve" smooth="yes"/>
      <point x="634" y="443"/>
      <point x="547" y="375"/>
    </contour>
  </outline>
</glyph>
<glyph name="eng.sc" format="2">
  <advance width="692"/>
  <outline>
    <contour>
      <point x="354" y="-158" type="curve" smooth="yes"/>
      <point x="441" y="-158"/>
      <point x="495" y="-116"/>
      <point x="518" y="-1" type="curve" smooth="yes"/>
      <point x="630" y="559" type="line"/>
      <point x="610" y="559" type="line"/>
      <point x="499" y="3" type="line" smooth="yes"/>
      <point x="478" y="-102"/>
      <point x="432" y="-139"/>
      <point x="358" y="-139" type="curve" smooth="yes"/>
      <point x="315" y="-139"/>
      <point x="280" y="-125"/>
      <point x="257" y="-101" type="curve"/>
      <point x="241" y="-114" type="line"/>
      <point x="267" y="-142"/>
      <point x="307" y="-158"/>
    </contour>
    <contour>
      <point x="70" y="0" type="line"/>
      <point x="90" y="0" type="line"/>
      <point x="197" y="535" type="line"/>
      <point x="190" y="535" type="line"/>
      <point x="501" y="0" type="line"/>
      <point x="510" y="24" type="line"/>
      <point x="199" y="559" type="line"/>
      <point x="182" y="559" type="line"/>
    </contour>
  </outline>
</glyph>
<glyph name="eogonek.ss01" format="2">
  <advance width="586"/>
  <anchor x="346" y="517" name="top"/>
  <outline>
    <contour>
      <point x="330" y="-213" type="curve" smooth="yes"/>
      <point x="359" y="-213"/>
      <point x="386" y="-204"/>
      <point x="408" y="-186" type="curve"/>
      <point x="401" y="-169" type="line"/>
      <point x="381" y="-185"/>
      <point x="356" y="-194"/>
      <point x="332" y="-194" type="curve" smooth="yes"/>
      <point x="297" y="-194"/>
      <point x="277" y="-176"/>
      <point x="277" y="-142" type="curve" smooth="yes"/>
      <point x="277" y="-89"/>
      <point x="322" y="-35"/>
      <point x="439" y="43" type="curve" smooth="yes"/>
      <point x="454" y="54"/>
      <point x="469" y="66"/>
      <point x="481" y="80" type="curve"/>
      <point x="468" y="93" type="line"/>
      <point x="427" y="45"/>
      <point x="358" y="16"/>
      <point x="280" y="16" type="curve" smooth="yes"/>
      <point x="143" y="16"/>
      <point x="68" y="85"/>
      <point x="68" y="210" type="curve" smooth="yes"/>
      <point x="68" y="377"/>
      <point x="178" y="501"/>
      <point x="327" y="501" type="curve" smooth="yes"/>
      <point x="454" y="501"/>
      <point x="528" y="419"/>
      <point x="518" y="292" type="curve"/>
      <point x="529" y="306" type="line"/>
      <point x="56" y="216" type="line"/>
      <point x="59" y="198" type="line"/>
      <point x="536" y="289" type="line"/>
      <point x="545" y="431"/>
      <point x="466" y="520"/>
      <point x="328" y="520" type="curve" smooth="yes"/>
      <point x="167" y="520"/>
      <point x="50" y="386"/>
      <point x="50" y="210" type="curve" smooth="yes"/>
      <point x="50" y="74"/>
      <point x="136" y="-3"/>
      <point x="278" y="-3" type="curve" smooth="yes"/>
      <point x="313" y="-3"/>
      <point x="348" y="3"/>
      <point x="380" y="14" type="curve"/>
      <point x="382" y="19" type="line"/>
      <point x="291" y="-42"/>
      <point x="257" y="-94"/>
      <point x="257" y="-144" type="curve" smooth="yes"/>
      <point x="257" y="-187"/>
      <point x="287" y="-213"/>
    </contour>
  </outline>
</glyph>
<glyph name="five.dnom" format="2">
  <advance width="430"/>
  <outline>
    <contour>
      <point x="164" y="-2" type="curve" smooth="yes"/>
      <point x="274" y="-2"/>
      <point x="341" y="46"/>
      <point x="341" y="129" type="curve" smooth="yes"/>
      <point x="341" y="192"/>
      <point x="296" y="226"/>
      <point x="186" y="226" type="curve" smooth="yes"/>
      <point x="83" y="226" type="line"/>
      <point x="91" y="217" type="line"/>
      <point x="151" y="406" type="line"/>
      <point x="139" y="397" type="line"/>
      <point x="370" y="397" type="line"/>
      <point x="374" y="415" type="line"/>
      <point x="134" y="415" type="line"/>
      <point x="69" y="208" type="line"/>
      <point x="183" y="208" type="line" smooth="yes"/>
      <point x="283" y="208"/>
      <point x="322" y="182"/>
      <point x="322" y="129" type="curve" smooth="yes"/>
      <point x="322" y="55"/>
      <point x="262" y="16"/>
      <point x="165" y="16" type="curve" smooth="yes"/>
      <point x="95" y="16"/>
      <point x="46" y="39"/>
      <point x="20" y="70" type="curve"/>
      <point x="6" y="56" type="line"/>
      <point x="32" y="23"/>
      <point x="91" y="-2"/>
    </contour>
  </outline>
</glyph>
<glyph name="five.tf" format="2">
  <advance width="700"/>
  <outline>
    <contour>
      <point x="305" y="-3" type="curve" smooth="yes"/>
      <point x="473" y="-3"/>
      <point x="578" y="82"/>
      <point x="578" y="220" type="curve" smooth="yes"/>
      <point x="578" y="330"/>
      <point x="504" y="397"/>
      <point x="324" y="397" type="curve" smooth="yes"/>
      <point x="182" y="397" type="line"/>
      <point x="188" y="387" type="line"/>
      <point x="284" y="689" type="line"/>
      <point x="273" y="681" type="line"/>
      <point x="617" y="681" type="line"/>
      <point x="621" y="700" type="line"/>
      <point x="266" y="700" type="line"/>
      <point x="165" y="378" type="line"/>
      <point x="320" y="378" type="line" smooth="yes"/>
      <point x="494" y="378"/>
      <point x="558" y="319"/>
      <point x="558" y="220" type="curve" smooth="yes"/>
      <point x="558" y="93"/>
      <point x="464" y="16"/>
      <point x="307" y="16" type="curve" smooth="yes"/>
      <point x="192" y="16"/>
      <point x="113" y="56"/>
      <point x="82" y="109" type="curve"/>
      <point x="65" y="96" type="line"/>
      <point x="99" y="38"/>
      <point x="187" y="-3"/>
    </contour>
  </outline>
</glyph>
<glyph name="g.sc.ss01" format="2">
  <advance width="647"/>
  <anchor x="282" y="0" name="bottom"/>
  <anchor x="395" y="559" name="top"/>
  <outline>
    <contour>
      <point x="310" y="-3" type="curve" smooth="yes"/>
      <point x="383" y="-3"/>
      <point x="451" y="19"/>
      <point x="496" y="60" type="curve"/>
      <point x="497" y="79" type="line"/>
      <point x="443" y="36"/>
      <point x="384" y="16"/>
      <point x="312" y="16" type="curve" smooth="yes"/>
      <point x="156" y="16"/>
      <point x="75" y="101"/>
      <point x="75" y="224" type="curve" smooth="yes"/>
      <point x="75" y="396"/>
      <point x="199" y="543"/>
      <point x="394" y="543" type="curve" smooth="yes"/>
      <point x="477" y="543"/>
      <point x="539" y="521"/>
      <point x="577" y="477" type="curve"/>
      <point x="592" y="490" type="line"/>
      <point x="553" y="535"/>
      <point x="483" y="562"/>
      <point x="396" y="562" type="curve" smooth="yes"/>
      <point x="183" y="562"/>
      <point x="55" y="404"/>
      <point x="55" y="224" type="curve" smooth="yes"/>
      <point x="55" y="88"/>
      <point x="145" y="-3"/>
    </contour>
    <contour>
      <point x="475" y="0" type="line"/>
      <point x="493" y="0" type="line"/>
      <point x="548" y="275" type="line"/>
      <point x="530" y="275" type="line"/>
      <point x="488" y="65" type="line"/>
      <point x="487" y="60" type="line"/>
    </contour>
  </outline>
</glyph>
<glyph name="germandbls.sc" format="2">
  <advance width="620"/>
  <outline>
    <contour>
      <point x="345" y="-3" type="curve" smooth="yes"/>
      <point x="464" y="-3"/>
      <point x="544" y="67"/>
      <point x="544" y="179" type="curve" smooth="yes"/>
      <point x="544" y="263"/>
      <point x="485" y="310"/>
      <point x="391" y="310" type="curve" smooth="yes"/>
      <point x="371" y="310"/>
      <point x="348" y="309"/>
      <point x="327" y="302" type="curve"/>
      <point x="330" y="291" type="line"/>
      <point x="557" y="482" type="line"/>
      <point x="560" y="498" type="line"/>
      <point x="525" y="537"/>
      <point x="468" y="559"/>
      <point x="391" y="559" type="curve" smooth="yes"/>
      <point x="247" y="559"/>
      <point x="160" y="481"/>
      <point x="133" y="345" type="curve" smooth="yes"/>
      <point x="64" y="0" type="line"/>
      <point x="84" y="0" type="line"/>
      <point x="152" y="339" type="line" smooth="yes"/>
      <point x="178" y="470"/>
      <point x="258" y="540"/>
      <point x="389" y="540" type="curve" smooth="yes"/>
      <point x="460" y="540"/>
      <point x="514" y="522"/>
      <point x="545" y="485" type="curve"/>
      <point x="548" y="497" type="line"/>
      <point x="312" y="298" type="line"/>
      <point x="314" y="283" type="line"/>
      <point x="336" y="289"/>
      <point x="364" y="293"/>
      <point x="388" y="293" type="curve" smooth="yes"/>
      <point x="474" y="293"/>
      <point x="525" y="253"/>
      <point x="525" y="179" type="curve" smooth="yes"/>
      <point x="525" y="77"/>
      <point x="453" y="16"/>
      <point x="348" y="16" type="curve" smooth="yes"/>
      <point x="305" y="16"/>
      <point x="268" y="24"/>
      <point x="236" y="41" type="curve"/>
      <point x="227" y="21" type="line"/>
      <point x="259" y="5"/>
      <point x="302" y="-3"/>
    </contour>
  </outline>
</glyph>
<glyph name="j.sc.ss01" format="2">
  <advance width="410"/>
  <anchor x="238" y="559" name="top"/>
  <outline>
    <contour>
      <point x="93" y="-83" type="curve" smooth="yes"/>
      <point x="180" y="-83"/>
      <point x="234" y="-41"/>
      <point x="257" y="74" type="curve" smooth="yes"/>
      <point x="354" y="559" type="line"/>
      <point x="123" y="559" type="line"/>
      <point x="119" y="540" type="line"/>
      <point x="330" y="540" type="line"/>
      <point x="238" y="78" type="line" smooth="yes"/>
      <point x="217" y="-26"/>
      <point x="170" y="-64"/>
      <point x="95" y="-64" type="curve" smooth="yes"/>
      <point x="38" y="-64"/>
      <point x="-6" y="-36"/>
      <point x="-26" y="8" type="curve"/>
      <point x="-43" y="-3" type="line"/>
      <point x="-22" y="-51"/>
      <point x="29" y="-83"/>
    </contour>
  </outline>
</glyph>
<glyph name="n.sc" format="2">
  <advance width="692"/>
  <anchor x="294" y="0" name="bottom"/>
  <anchor x="406" y="559" name="top"/>
  <outline>
    <contour>
      <point x="70" y="0" type="line"/>
      <point x="90" y="0" type="line"/>
      <point x="197" y="535" type="line"/>
      <point x="190" y="536" type="line"/>
      <point x="501" y="0" type="line"/>
      <point x="518" y="0" type="line"/>
      <point x="630" y="559" type="line"/>
      <point x="610" y="559" type="line"/>
      <point x="503" y="24" type="line"/>
      <point x="510" y="23" type="line"/>
      <point x="199" y="559" type="line"/>
      <point x="182" y="559" type="line"/>
    </contour>
  </outline>
</glyph>
<glyph name="nine.dnom" format="2">
  <advance width="430"/>
  <outline>
    <contour>
      <point x="209" y="415" type="curve" smooth="yes"/>
      <point x="117" y="415"/>
      <point x="51" y="364"/>
      <point x="51" y="285" type="curve" smooth="yes"/>
      <point x="51" y="213"/>
      <point x="109" y="170"/>
      <point x="196" y="170" type="curve" smooth="yes"/>
      <point x="278" y="170"/>
      <point x="340" y="205"/>
      <point x="357" y="279" type="curve"/>
      <point x="350" y="283" type="line"/>
      <point x="351" y="275"/>
      <point x="352" y="267"/>
      <point x="352" y="259" type="curve" smooth="yes"/>
      <point x="352" y="123"/>
      <point x="277" y="16"/>
      <point x="128" y="16" type="curve" smooth="yes"/>
      <point x="97" y="16"/>
      <point x="65" y="21"/>
      <point x="38" y="35" type="curve"/>
      <point x="28" y="19" type="line"/>
      <point x="55" y="4"/>
      <point x="94" y="-2"/>
      <point x="127" y="-2" type="curve" smooth="yes"/>
      <point x="288" y="-2"/>
      <point x="371" y="117"/>
      <point x="371" y="260" type="curve" smooth="yes"/>
      <point x="371" y="355"/>
      <point x="313" y="415"/>
    </contour>
    <contour>
      <point x="209" y="398" type="curve" smooth="yes"/>
      <point x="308" y="398"/>
      <point x="345" y="338"/>
      <point x="345" y="299" type="curve" smooth="yes"/>
      <point x="345" y="229"/>
      <point x="280" y="187"/>
      <point x="196" y="187" type="curve" smooth="yes"/>
      <point x="121" y="187"/>
      <point x="70" y="222"/>
      <point x="70" y="286" type="curve" smooth="yes"/>
      <point x="70" y="354"/>
      <point x="127" y="398"/>
    </contour>
  </outline>
</glyph>
<glyph name="ohorn.sc" format="2">
  <advance width="694"/>
  <anchor x="295" y="0" name="bottom"/>
  <anchor x="407" y="559" name="top"/>
  <outline>
    <contour>
      <point x="310" y="-3" type="curve" smooth="yes"/>
      <point x="519" y="-3"/>
      <point x="647" y="156"/>
      <point x="647" y="335" type="curve" smooth="yes"/>
      <point x="647" y="429"/>
      <point x="604" y="501"/>
      <point x="521" y="538" type="curve"/>
      <point x="513" y="536" type="line"/>
      <point x="547" y="533"/>
      <point x="559" y="532"/>
      <point x="582" y="532" type="curve" smooth="yes"/>
      <point x="667" y="532"/>
      <point x="692" y="579"/>
      <point x="692" y="630" type="curve" smooth="yes"/>
      <point x="692" y="656"/>
      <point x="683" y="684"/>
      <point x="670" y="704" type="curve"/>
      <point x="652" y="696" type="line"/>
      <point x="663" y="677"/>
      <point x="672" y="655"/>
      <point x="672" y="629" type="curve" smooth="yes"/>
      <point x="672" y="590"/>
      <point x="654" y="551"/>
      <point x="582" y="551" type="curve" smooth="yes"/>
      <point x="509" y="551"/>
      <point x="466" y="562"/>
      <point x="392" y="562" type="curve" smooth="yes"/>
      <point x="183" y="562"/>
      <point x="55" y="404"/>
      <point x="55" y="224" type="curve" smooth="yes"/>
      <point x="55" y="89"/>
      <point x="145" y="-3"/>
    </contour>
    <contour>
      <point x="312" y="16" type="curve" smooth="yes"/>
      <point x="156" y="16"/>
      <point x="75" y="101"/>
      <point x="75" y="224" type="curve" smooth="yes"/>
      <point x="75" y="397"/>
      <point x="197" y="543"/>
      <point x="390" y="543" type="curve" smooth="yes"/>
      <point x="547" y="543"/>
      <point x="627" y="458"/>
      <point x="627" y="335" type="curve" smooth="yes"/>
      <point x="627" y="162"/>
      <point x="504" y="16"/>
    </contour>
  </outline>
</glyph>
<glyph name="periodcentered.loclCAT" format="2">
  <advance width="72"/>
  <anchor x="87" y="266" name="_dot"/>
  <outline>
    <contour>
      <point x="86" y="240" type="curve" smooth="yes"/>
      <point x="100" y="240"/>
      <point x="112" y="252"/>
      <point x="112" y="266" type="curve" smooth="yes"/>
      <point x="112" y="280"/>
      <point x="100" y="292"/>
      <point x="86" y="292" type="curve" smooth="yes"/>
      <point x="72" y="292"/>
      <point x="60" y="280"/>
      <point x="60" y="266" type="curve" smooth="yes"/>
      <point x="60" y="252"/>
      <point x="72" y="240"/>
    </contour>
  </outline>
</glyph>
<glyph name="questiondown.sc" format="2">
  <advance width="507"/>
  <outline>
    <contour>
      <point x="309" y="391" type="curve"/>
      <point x="289" y="391" type="line"/>
      <point x="260" y="252"/>
      <point x="59" y="263"/>
      <point x="59" y="110" type="curve" smooth="yes"/>
      <point x="59" y="38"/>
      <point x="124" y="-3"/>
      <point x="229" y="-3" type="curve" smooth="yes"/>
      <point x="320" y="-3"/>
      <point x="396" y="20"/>
      <point x="448" y="63" type="curve"/>
      <point x="437" y="78" type="line"/>
      <point x="382" y="36"/>
      <point x="316" y="16"/>
      <point x="232" y="16" type="curve" smooth="yes"/>
      <point x="134" y="16"/>
      <point x="79" y="50"/>
      <point x="79" y="112" type="curve" smooth="yes"/>
      <point x="79" y="250"/>
      <point x="277" y="236"/>
    </contour>
    <contour>
      <point x="325" y="562" type="curve" smooth="yes"/>
      <point x="311" y="562"/>
      <point x="299" y="550"/>
      <point x="299" y="536" type="curve" smooth="yes"/>
      <point x="299" y="522"/>
      <point x="311" y="510"/>
      <point x="325" y="510" type="curve" smooth="yes"/>
      <point x="339" y="510"/>
      <point x="351" y="522"/>
      <point x="351" y="536" type="curve" smooth="yes"/>
      <point x="351" y="550"/>
      <point x="339" y="562"/>
    </contour>
  </outline>
</glyph>
<glyph name="three.osf" format="2">
  <advance width="548"/>
  <outline>
    <contour>
      <point x="205" y="-103" type="curve" smooth="yes"/>
      <point x="367" y="-103"/>
      <point x="470" y="-13"/>
      <point x="470" y="128" type="curve" smooth="yes"/>
      <point x="470" y="235"/>
      <point x="394" y="287"/>
      <point x="262" y="287" type="curve" smooth="yes"/>
      <point x="245" y="287" type="line"/>
      <point x="249" y="280" type="line"/>
      <point x="539" y="585" type="line"/>
      <point x="542" y="600" type="line"/>
      <point x="119" y="600" type="line"/>
      <point x="115" y="581" type="line"/>
      <point x="518" y="581" type="line"/>
      <point x="514" y="587" type="line"/>
      <point x="225" y="283" type="line"/>
      <point x="222" y="268" type="line"/>
      <point x="261" y="268" type="line" smooth="yes"/>
      <point x="384" y="268"/>
      <point x="450" y="224"/>
      <point x="450" y="129" type="curve" smooth="yes"/>
      <point x="450" y="-3"/>
      <point x="356" y="-84"/>
      <point x="206" y="-84" type="curve" smooth="yes"/>
      <point x="99" y="-84"/>
      <point x="23" y="-44"/>
      <point x="-8" y="9" type="curve"/>
      <point x="-25" y="-4" type="line"/>
      <point x="9" y="-62"/>
      <point x="95" y="-103"/>
    </contour>
  </outline>
</glyph>
<glyph name="two.dnom" format="2">
  <advance width="430"/>
  <outline>
    <contour>
      <point x="0" y="0" type="line"/>
      <point x="316" y="0" type="line"/>
      <point x="320" y="18" type="line"/>
      <point x="16" y="18" type="line"/>
      <point x="28" y="11" type="line"/>
      <point x="248" y="173" type="line" smooth="yes"/>
      <point x="335" y="237"/>
      <point x="356" y="275"/>
      <point x="356" y="320" type="curve" smooth="yes"/>
      <point x="356" y="380"/>
      <point x="308" y="417"/>
      <point x="221" y="417" type="curve" smooth="yes"/>
      <point x="156" y="417"/>
      <point x="99" y="399"/>
      <point x="60" y="363" type="curve"/>
      <point x="71" y="349" type="line"/>
      <point x="108" y="382"/>
      <point x="158" y="399"/>
      <point x="220" y="399" type="curve" smooth="yes"/>
      <point x="295" y="399"/>
      <point x="337" y="370"/>
      <point x="337" y="320" type="curve" smooth="yes"/>
      <point x="337" y="280"/>
      <point x="320" y="248"/>
      <point x="234" y="184" type="curve" smooth="yes"/>
      <point x="3" y="14" type="line"/>
    </contour>
  </outline>
</glyph>
<glyph name="verticalbar-cy.case" format="2">
  <advance width="250"/>
  <anchor x="74" y="0" name="_bottom"/>
  <outline>
    <contour>
      <point x="85" y="10" type="line"/>
      <point x="65" y="10" type="line"/>
      <point x="30" y="-165" type="line"/>
      <point x="50" y="-165" type="line"/>
    </contour>
  </outline>
</glyph>
<glyph name="w.sc" format="2">
  <advance width="905"/>
  <anchor x="401" y="0" name="bottom"/>
  <anchor x="513" y="559" name="top"/>
  <outline>
    <contour>
      <point x="191" y="0" type="line"/>
      <point x="211" y="0" type="line"/>
      <point x="510" y="536" type="line"/>
      <point x="505" y="536" type="line"/>
      <point x="587" y="0" type="line"/>
      <point x="607" y="0" type="line"/>
      <point x="914" y="559" type="line"/>
      <point x="893" y="559" type="line"/>
      <point x="594" y="16" type="line"/>
      <point x="604" y="16" type="line"/>
      <point x="521" y="559" type="line"/>
      <point x="502" y="559" type="line"/>
      <point x="199" y="16" type="line"/>
      <point x="208" y="16" type="line"/>
      <point x="130" y="559" type="line"/>
      <point x="110" y="559" type="line"/>
    </contour>
  </outline>
</glyph>
<glyph name="w.sc.ss01" format="2">
  <advance width="1030"/>
  <anchor x="579" y="559" name="top"/>
  <outline>
    <contour>
      <point x="272" y="-3" type="curve" smooth="yes"/>
      <point x="365" y="-3"/>
      <point x="444" y="40"/>
      <point x="492" y="143" type="curve"/>
      <point x="487" y="143" type="line"/>
      <point x="486" y="46"/>
      <point x="549" y="-3"/>
      <point x="655" y="-3" type="curve" smooth="yes"/>
      <point x="787" y="-3"/>
      <point x="867" y="66"/>
      <point x="899" y="213" type="curve" smooth="yes"/>
      <point x="974" y="559" type="line"/>
      <point x="954" y="559" type="line"/>
      <point x="880" y="215" type="line" smooth="yes"/>
      <point x="851" y="80"/>
      <point x="777" y="17"/>
      <point x="655" y="17" type="curve" smooth="yes"/>
      <point x="538" y="17"/>
      <point x="484" y="79"/>
      <point x="512" y="207" type="curve" smooth="yes"/>
      <point x="589" y="559" type="line"/>
      <point x="569" y="559" type="line"/>
      <point x="497" y="223" type="line" smooth="yes"/>
      <point x="466" y="80"/>
      <point x="384" y="17"/>
      <point x="272" y="17" type="curve" smooth="yes"/>
      <point x="154" y="17"/>
      <point x="98" y="79"/>
      <point x="126" y="207" type="curve" smooth="yes"/>
      <point x="203" y="559" type="line"/>
      <point x="182" y="559" type="line"/>
      <point x="106" y="207" type="line" smooth="yes"/>
      <point x="76" y="68"/>
      <point x="144" y="-3"/>
    </contour>
  </outline>
</glyph>
<glyph name="z.sc" format="2">
  <advance width="528"/>
  <anchor x="227" y="0" name="bottom"/>
  <anchor x="331" y="559" name="top"/>
  <outline>
    <contour>
      <point x="-4" y="0" type="line"/>
      <point x="443" y="0" type="line"/>
      <point x="447" y="19" type="line"/>
      <point x="23" y="19" type="line"/>
      <point x="22" y="12" type="line"/>
      <point x="545" y="544" type="line"/>
      <point x="548" y="559" type="line"/>
      <point x="113" y="559" type="line"/>
      <point x="109" y="540" type="line"/>
      <point x="520" y="540" type="line"/>
      <point x="521" y="548" type="line"/>
      <point x="-1" y="15" type="line"/>
    </contour>
  </outline>
</glyph>
<glyph name="z.ss01" format="2">
  <advance width="501"/>
  <anchor x="203" y="0" name="bottom"/>
  <anchor x="306" y="517" name="top"/>
  <outline>
    <contour>
      <point x="-1" y="0" type="line"/>
      <point x="396" y="0" type="line"/>
      <point x="400" y="19" type="line"/>
      <point x="14" y="19" type="line"/>
      <point x="28" y="13" type="line"/>
      <point x="491" y="502" type="line"/>
      <point x="494" y="517" type="line"/>
      <point x="107" y="517" type="line"/>
      <point x="104" y="498" type="line"/>
      <point x="476" y="498" type="line"/>
      <point x="465" y="504" type="line"/>
      <point x="2" y="15" type="line"/>
    </contour>
    <contour>
      <point x="246" y="252" type="line"/>
      <point x="406" y="252" type="line"/>
      <point x="410" y="271" type="line"/>
      <point x="264" y="271" type="line"/>
      <point x="257" y="271" type="line"/>
      <point x="103" y="271" type="line"/>
      <point x="99" y="252" type="line"/>
      <point x="239" y="252" type="line"/>
    </contour>
  </outline>
</glyph>
